<svg xmlns="http://www.w3.org/2000/svg" viewBox="0 0 270 180"><path style="fill:#039" d="M0 872.36h270v180H0z" transform="translate(0 -872.36)"/><path style="fill:#fc0" transform="translate(0 -60)" d="m135 80 2.245 6.91h7.265l-5.877 4.27 2.245 6.91-5.88-4.27-5.878 4.27 2.245-6.91-5.878-4.27 7.265-.001z"/><path style="fill:#fc0" d="m135 80 2.245 6.91h7.265l-5.877 4.27 2.245 6.91-5.88-4.27-5.878 4.27 2.245-6.91-5.878-4.27 7.265-.001z" transform="translate(52 30)"/><path style="fill:#fc0" transform="translate(0 60)" d="m135 80 2.245 6.91h7.265l-5.877 4.27 2.245 6.91-5.88-4.27-5.878 4.27 2.245-6.91-5.878-4.27 7.265-.001z"/><path style="fill:#fc0" transform="translate(60)" d="m135 80 2.245 6.91h7.265l-5.877 4.27 2.245 6.91-5.88-4.27-5.878 4.27 2.245-6.91-5.878-4.27 7.265-.001z"/><path style="fill:#fc0" transform="translate(-60)" d="m135 80 2.245 6.91h7.265l-5.877 4.27 2.245 6.91-5.88-4.27-5.878 4.27 2.245-6.91-5.878-4.27 7.265-.001z"/><path style="fill:#fc0" transform="translate(30 -52)" d="m135 80 2.245 6.91h7.265l-5.877 4.27 2.245 6.91-5.88-4.27-5.878 4.27 2.245-6.91-5.878-4.27 7.265-.001z"/><path style="fill:#fc0" transform="translate(-30 -52)" d="m135 80 2.245 6.91h7.265l-5.877 4.27 2.245 6.91-5.88-4.27-5.878 4.27 2.245-6.91-5.878-4.27 7.265-.001z"/><path style="fill:#fc0" transform="translate(-30 52)" d="m135 80 2.245 6.91h7.265l-5.877 4.27 2.245 6.91-5.88-4.27-5.878 4.27 2.245-6.91-5.878-4.27 7.265-.001z"/><path style="fill:#fc0" transform="translate(30 52)" d="m135 80 2.245 6.91h7.265l-5.877 4.27 2.245 6.91-5.88-4.27-5.878 4.27 2.245-6.91-5.878-4.27 7.265-.001z"/><path style="fill:#fc0" transform="translate(52 -30)" d="m135 80 2.245 6.91h7.265l-5.877 4.27 2.245 6.91-5.88-4.27-5.878 4.27 2.245-6.91-5.878-4.27 7.265-.001z"/><path style="fill:#fc0" transform="translate(-52 -30)" d="m135 80 2.245 6.91h7.265l-5.877 4.27 2.245 6.91-5.88-4.27-5.878 4.27 2.245-6.91-5.878-4.27 7.265-.001z"/><path style="fill:#fc0" transform="translate(-52 30)" d="m135 80 2.245 6.91h7.265l-5.877 4.27 2.245 6.91-5.88-4.27-5.878 4.27 2.245-6.91-5.878-4.27 7.265-.001z"/></svg>