<svg xmlns="http://www.w3.org/2000/svg" viewBox="0 0 380 200" version="1.0"><path style="stroke:#000;fill:none" d="M0 1h379v199H0z"/><path style="fill-rule:evenodd;fill:#bf0a30" d="M0 184h379v16H0z"/><path style="fill-rule:evenodd;fill:#fff" d="M0 168h379v16H0z"/><path style="fill-rule:evenodd;fill:#bf0a30" d="M0 152h379v16H0z"/><path style="fill-rule:evenodd;fill:#fff" d="M0 136h379v16H0z"/><path style="fill-rule:evenodd;fill:#bf0a30" d="M0 121h379v15H0z"/><path style="fill-rule:evenodd;fill:#fff" d="M0 106h379v15H0z"/><path style="fill-rule:evenodd;fill:#bf0a30" d="M0 91h379v15H0z"/><path style="fill-rule:evenodd;fill:#fff" d="M0 76h379v15H0z"/><path style="fill-rule:evenodd;fill:#bf0a30" d="M0 61h379v15H0z"/><path style="fill-rule:evenodd;fill:#fff" d="M0 46h379v15H0z"/><path style="fill-rule:evenodd;fill:#bf0a30" d="M0 31h379v15H0z"/><path style="fill-rule:evenodd;fill:#fff" d="M0 16h379v15H0z"/><path style="fill-rule:evenodd;fill:#bf0a30" d="M0 1h379v15H0z"/><g><path style="fill-rule:evenodd;fill:#002868" d="M0 1h152v105H0z"/></g><g><path style="fill-rule:evenodd;fill:#fff" transform="matrix(1.0487 .08995 -.08593 1.0977 -86.263 -76.411)" d="m100.33 146.67 4.14-.78 1.28-4.01 2.01 3.7 4.21-.03-2.89 3.06 1.32 4-3.8-1.81-3.39 2.49.55-4.17-3.43-2.45z"/><path style="fill-rule:evenodd;fill:#fff" transform="matrix(1.0487 .08995 -.08593 1.0977 -61.263 -76.411)" d="m100.33 146.67 4.14-.78 1.28-4.01 2.01 3.7 4.21-.03-2.89 3.06 1.32 4-3.8-1.81-3.39 2.49.55-4.17-3.43-2.45z"/><path style="fill-rule:evenodd;fill:#fff" transform="matrix(1.0487 .08995 -.08593 1.0977 -35.263 -76.411)" d="m100.33 146.67 4.14-.78 1.28-4.01 2.01 3.7 4.21-.03-2.89 3.06 1.32 4-3.8-1.81-3.39 2.49.55-4.17-3.43-2.45z"/><path style="fill-rule:evenodd;fill:#fff" transform="matrix(1.0487 .08995 -.08593 1.0977 -10.263 -76.411)" d="m100.33 146.67 4.14-.78 1.28-4.01 2.01 3.7 4.21-.03-2.89 3.06 1.32 4-3.8-1.81-3.39 2.49.55-4.17-3.43-2.45z"/><path style="fill-rule:evenodd;fill:#fff" transform="matrix(1.0487 .08995 -.08593 1.0977 14.737 -76.411)" d="m100.33 146.67 4.14-.78 1.28-4.01 2.01 3.7 4.21-.03-2.89 3.06 1.32 4-3.8-1.81-3.39 2.49.55-4.17-3.43-2.45z"/><path style="fill-rule:evenodd;fill:#fff" transform="matrix(1.0487 .08995 -.08593 1.0977 40.737 -76.411)" d="m100.33 146.67 4.14-.78 1.28-4.01 2.01 3.7 4.21-.03-2.89 3.06 1.32 4-3.8-1.81-3.39 2.49.55-4.17-3.43-2.45z"/><path style="fill-rule:evenodd;fill:#fff" transform="matrix(1.0487 .08995 -.08593 1.0977 -73.263 -86.411)" d="m100.33 146.67 4.14-.78 1.28-4.01 2.01 3.7 4.21-.03-2.89 3.06 1.32 4-3.8-1.81-3.39 2.49.55-4.17-3.43-2.45z"/><path style="fill-rule:evenodd;fill:#fff" transform="matrix(1.0487 .08995 -.08593 1.0977 -86.263 -97.411)" d="m100.33 146.67 4.14-.78 1.28-4.01 2.01 3.7 4.21-.03-2.89 3.06 1.32 4-3.8-1.81-3.39 2.49.55-4.17-3.43-2.45z"/><path style="fill-rule:evenodd;fill:#fff" transform="matrix(1.0487 .08995 -.08593 1.0977 -73.263 -107.41)" d="m100.33 146.67 4.14-.78 1.28-4.01 2.01 3.7 4.21-.03-2.89 3.06 1.32 4-3.8-1.81-3.39 2.49.55-4.17-3.43-2.45z"/><path style="fill-rule:evenodd;fill:#fff" transform="matrix(1.0487 .08995 -.08593 1.0977 -86.263 -118.41)" d="m100.33 146.67 4.14-.78 1.28-4.01 2.01 3.7 4.21-.03-2.89 3.06 1.32 4-3.8-1.81-3.39 2.49.55-4.17-3.43-2.45z"/><path style="fill-rule:evenodd;fill:#fff" transform="matrix(1.0487 .08995 -.08593 1.0977 -73.263 -128.41)" d="m100.33 146.67 4.14-.78 1.28-4.01 2.01 3.7 4.21-.03-2.89 3.06 1.32 4-3.8-1.81-3.39 2.49.55-4.17-3.43-2.45z"/><path style="fill-rule:evenodd;fill:#fff" transform="matrix(1.0487 .08995 -.08593 1.0977 -86.263 -139.41)" d="m100.33 146.67 4.14-.78 1.28-4.01 2.01 3.7 4.21-.03-2.89 3.06 1.32 4-3.8-1.81-3.39 2.49.55-4.17-3.43-2.45z"/><path style="fill-rule:evenodd;fill:#fff" transform="matrix(1.0487 .08995 -.08593 1.0977 -73.263 -149.41)" d="m100.33 146.67 4.14-.78 1.28-4.01 2.01 3.7 4.21-.03-2.89 3.06 1.32 4-3.8-1.81-3.39 2.49.55-4.17-3.43-2.45z"/><path style="fill-rule:evenodd;fill:#fff" transform="matrix(1.0487 .08995 -.08593 1.0977 -86.263 -160.41)" d="m100.33 146.67 4.14-.78 1.28-4.01 2.01 3.7 4.21-.03-2.89 3.06 1.32 4-3.8-1.81-3.39 2.49.55-4.17-3.43-2.45z"/><path style="fill-rule:evenodd;fill:#fff" transform="matrix(1.0487 .08995 -.08593 1.0977 -48.263 -86.411)" d="m100.33 146.67 4.14-.78 1.28-4.01 2.01 3.7 4.21-.03-2.89 3.06 1.32 4-3.8-1.81-3.39 2.49.55-4.17-3.43-2.45z"/><path style="fill-rule:evenodd;fill:#fff" transform="matrix(1.0487 .08995 -.08593 1.0977 -61.263 -97.411)" d="m100.33 146.67 4.14-.78 1.28-4.01 2.01 3.7 4.21-.03-2.89 3.06 1.32 4-3.8-1.81-3.39 2.49.55-4.17-3.43-2.45z"/><path style="fill-rule:evenodd;fill:#fff" transform="matrix(1.0487 .08995 -.08593 1.0977 -48.263 -107.41)" d="m100.33 146.67 4.14-.78 1.28-4.01 2.01 3.7 4.21-.03-2.89 3.06 1.32 4-3.8-1.81-3.39 2.49.55-4.17-3.43-2.45z"/><path style="fill-rule:evenodd;fill:#fff" transform="matrix(1.0487 .08995 -.08593 1.0977 -61.263 -118.41)" d="m100.33 146.67 4.14-.78 1.28-4.01 2.01 3.7 4.21-.03-2.89 3.06 1.32 4-3.8-1.81-3.39 2.49.55-4.17-3.43-2.45z"/><path style="fill-rule:evenodd;fill:#fff" transform="matrix(1.0487 .08995 -.08593 1.0977 -48.263 -128.41)" d="m100.33 146.67 4.14-.78 1.28-4.01 2.01 3.7 4.21-.03-2.89 3.06 1.32 4-3.8-1.81-3.39 2.49.55-4.17-3.43-2.45z"/><path style="fill-rule:evenodd;fill:#fff" transform="matrix(1.0487 .08995 -.08593 1.0977 -61.263 -139.41)" d="m100.33 146.67 4.14-.78 1.28-4.01 2.01 3.7 4.21-.03-2.89 3.06 1.32 4-3.8-1.81-3.39 2.49.55-4.17-3.43-2.45z"/><path style="fill-rule:evenodd;fill:#fff" transform="matrix(1.0487 .08995 -.08593 1.0977 -48.263 -149.41)" d="m100.33 146.67 4.14-.78 1.28-4.01 2.01 3.7 4.21-.03-2.89 3.06 1.32 4-3.8-1.81-3.39 2.49.55-4.17-3.43-2.45z"/><path style="fill-rule:evenodd;fill:#fff" transform="matrix(1.0487 .08995 -.08593 1.0977 -61.263 -160.41)" d="m100.33 146.67 4.14-.78 1.28-4.01 2.01 3.7 4.21-.03-2.89 3.06 1.32 4-3.8-1.81-3.39 2.49.55-4.17-3.43-2.45z"/><path style="fill-rule:evenodd;fill:#fff" transform="matrix(1.0487 .08995 -.08593 1.0977 -23.263 -86.411)" d="m100.33 146.67 4.14-.78 1.28-4.01 2.01 3.7 4.21-.03-2.89 3.06 1.32 4-3.8-1.81-3.39 2.49.55-4.17-3.43-2.45z"/><path style="fill-rule:evenodd;fill:#fff" transform="matrix(1.0487 .08995 -.08593 1.0977 -35.263 -97.411)" d="m100.33 146.67 4.14-.78 1.28-4.01 2.01 3.7 4.21-.03-2.89 3.06 1.32 4-3.8-1.81-3.39 2.49.55-4.17-3.43-2.45z"/><path style="fill-rule:evenodd;fill:#fff" transform="matrix(1.0487 .08995 -.08593 1.0977 14.737 -97.411)" d="m100.33 146.67 4.14-.78 1.28-4.01 2.01 3.7 4.21-.03-2.89 3.06 1.32 4-3.8-1.81-3.39 2.49.55-4.17-3.43-2.45z"/><path style="fill-rule:evenodd;fill:#fff" transform="matrix(1.0487 .08995 -.08593 1.0977 -10.263 -97.411)" d="m100.33 146.67 4.14-.78 1.28-4.01 2.01 3.7 4.21-.03-2.89 3.06 1.32 4-3.8-1.81-3.39 2.49.55-4.17-3.43-2.45z"/><path style="fill-rule:evenodd;fill:#fff" transform="matrix(1.0487 .08995 -.08593 1.0977 27.737 -86.411)" d="m100.33 146.67 4.14-.78 1.28-4.01 2.01 3.7 4.21-.03-2.89 3.06 1.32 4-3.8-1.81-3.39 2.49.55-4.17-3.43-2.45z"/><path style="fill-rule:evenodd;fill:#fff" transform="matrix(1.0487 .08995 -.08593 1.0977 2.737 -86.411)" d="m100.33 146.67 4.14-.78 1.28-4.01 2.01 3.7 4.21-.03-2.89 3.06 1.32 4-3.8-1.81-3.39 2.49.55-4.17-3.43-2.45z"/><path style="fill-rule:evenodd;fill:#fff" transform="matrix(1.0487 .08995 -.08593 1.0977 -35.263 -160.41)" d="m100.33 146.67 4.14-.78 1.28-4.01 2.01 3.7 4.21-.03-2.89 3.06 1.32 4-3.8-1.81-3.39 2.49.55-4.17-3.43-2.45z"/><path style="fill-rule:evenodd;fill:#fff" transform="matrix(1.0487 .08995 -.08593 1.0977 -23.263 -149.41)" d="m100.33 146.67 4.14-.78 1.28-4.01 2.01 3.7 4.21-.03-2.89 3.06 1.32 4-3.8-1.81-3.39 2.49.55-4.17-3.43-2.45z"/><path style="fill-rule:evenodd;fill:#fff" transform="matrix(1.0487 .08995 -.08593 1.0977 -35.263 -139.41)" d="m100.33 146.67 4.14-.78 1.28-4.01 2.01 3.7 4.21-.03-2.89 3.06 1.32 4-3.8-1.81-3.39 2.49.55-4.17-3.43-2.45z"/><path style="fill-rule:evenodd;fill:#fff" transform="matrix(1.0487 .08995 -.08593 1.0977 -23.263 -128.41)" d="m100.33 146.67 4.14-.78 1.28-4.01 2.01 3.7 4.21-.03-2.89 3.06 1.32 4-3.8-1.81-3.39 2.49.55-4.17-3.43-2.45z"/><path style="fill-rule:evenodd;fill:#fff" transform="matrix(1.0487 .08995 -.08593 1.0977 -35.263 -118.41)" d="m100.33 146.67 4.14-.78 1.28-4.01 2.01 3.7 4.21-.03-2.89 3.06 1.32 4-3.8-1.81-3.39 2.49.55-4.17-3.43-2.45z"/><path style="fill-rule:evenodd;fill:#fff" transform="matrix(1.0487 .08995 -.08593 1.0977 -23.263 -107.41)" d="m100.33 146.67 4.14-.78 1.28-4.01 2.01 3.7 4.21-.03-2.89 3.06 1.32 4-3.8-1.81-3.39 2.49.55-4.17-3.43-2.45z"/><path style="fill-rule:evenodd;fill:#fff" transform="matrix(1.0487 .08995 -.08593 1.0977 40.737 -97.411)" d="m100.33 146.67 4.14-.78 1.28-4.01 2.01 3.7 4.21-.03-2.89 3.06 1.32 4-3.8-1.81-3.39 2.49.55-4.17-3.43-2.45z"/><path style="fill-rule:evenodd;fill:#fff" transform="matrix(1.0487 .08995 -.08593 1.0977 -10.263 -118.41)" d="m100.33 146.67 4.14-.78 1.28-4.01 2.01 3.7 4.21-.03-2.89 3.06 1.32 4-3.8-1.81-3.39 2.49.55-4.17-3.43-2.45z"/><path style="fill-rule:evenodd;fill:#fff" transform="matrix(1.0487 .08995 -.08593 1.0977 -10.263 -160.41)" d="m100.33 146.67 4.14-.78 1.28-4.01 2.01 3.7 4.21-.03-2.89 3.06 1.32 4-3.8-1.81-3.39 2.49.55-4.17-3.43-2.45z"/><path style="fill-rule:evenodd;fill:#fff" transform="matrix(1.0487 .08995 -.08593 1.0977 -10.263 -139.41)" d="m100.33 146.67 4.14-.78 1.28-4.01 2.01 3.7 4.21-.03-2.89 3.06 1.32 4-3.8-1.81-3.39 2.49.55-4.17-3.43-2.45z"/><path style="fill-rule:evenodd;fill:#fff" transform="matrix(1.0487 .08995 -.08593 1.0977 27.737 -107.41)" d="m100.33 146.67 4.14-.78 1.28-4.01 2.01 3.7 4.21-.03-2.89 3.06 1.32 4-3.8-1.81-3.39 2.49.55-4.17-3.43-2.45z"/><path style="fill-rule:evenodd;fill:#fff" transform="matrix(1.0487 .08995 -.08593 1.0977 2.737 -107.41)" d="m100.33 146.67 4.14-.78 1.28-4.01 2.01 3.7 4.21-.03-2.89 3.06 1.32 4-3.8-1.81-3.39 2.49.55-4.17-3.43-2.45z"/><path style="fill-rule:evenodd;fill:#fff" transform="matrix(1.0487 .08995 -.08593 1.0977 2.737 -149.41)" d="m100.33 146.67 4.14-.78 1.28-4.01 2.01 3.7 4.21-.03-2.89 3.06 1.32 4-3.8-1.81-3.39 2.49.55-4.17-3.43-2.45z"/><path style="fill-rule:evenodd;fill:#fff" transform="matrix(1.0487 .08995 -.08593 1.0977 2.737 -128.41)" d="m100.33 146.67 4.14-.78 1.28-4.01 2.01 3.7 4.21-.03-2.89 3.06 1.32 4-3.8-1.81-3.39 2.49.55-4.17-3.43-2.45z"/><path style="fill-rule:evenodd;fill:#fff" transform="matrix(1.0487 .08995 -.08593 1.0977 40.737 -118.41)" d="m100.33 146.67 4.14-.78 1.28-4.01 2.01 3.7 4.21-.03-2.89 3.06 1.32 4-3.8-1.81-3.39 2.49.55-4.17-3.43-2.45z"/><path style="fill-rule:evenodd;fill:#fff" transform="matrix(1.0487 .08995 -.08593 1.0977 14.737 -118.41)" d="m100.33 146.67 4.14-.78 1.28-4.01 2.01 3.7 4.21-.03-2.89 3.06 1.32 4-3.8-1.81-3.39 2.49.55-4.17-3.43-2.45z"/><path style="fill-rule:evenodd;fill:#fff" transform="matrix(1.0487 .08995 -.08593 1.0977 14.737 -160.41)" d="m100.33 146.67 4.14-.78 1.28-4.01 2.01 3.7 4.21-.03-2.89 3.06 1.32 4-3.8-1.81-3.39 2.49.55-4.17-3.43-2.45z"/><path style="fill-rule:evenodd;fill:#fff" transform="matrix(1.0487 .08995 -.08593 1.0977 14.737 -139.41)" d="m100.33 146.67 4.14-.78 1.28-4.01 2.01 3.7 4.21-.03-2.89 3.06 1.32 4-3.8-1.81-3.39 2.49.55-4.17-3.43-2.45z"/><path style="fill-rule:evenodd;fill:#fff" transform="matrix(1.0487 .08995 -.08593 1.0977 40.737 -160.41)" d="m100.33 146.67 4.14-.78 1.28-4.01 2.01 3.7 4.21-.03-2.89 3.06 1.32 4-3.8-1.81-3.39 2.49.55-4.17-3.43-2.45z"/><path style="fill-rule:evenodd;fill:#fff" transform="matrix(1.0487 .08995 -.08593 1.0977 27.737 -149.41)" d="m100.33 146.67 4.14-.78 1.28-4.01 2.01 3.7 4.21-.03-2.89 3.06 1.32 4-3.8-1.81-3.39 2.49.55-4.17-3.43-2.45z"/><path style="fill-rule:evenodd;fill:#fff" transform="matrix(1.0487 .08995 -.08593 1.0977 40.737 -139.41)" d="m100.33 146.67 4.14-.78 1.28-4.01 2.01 3.7 4.21-.03-2.89 3.06 1.32 4-3.8-1.81-3.39 2.49.55-4.17-3.43-2.45z"/><path style="fill-rule:evenodd;fill:#fff" transform="matrix(1.0487 .08995 -.08593 1.0977 27.737 -128.41)" d="m100.33 146.67 4.14-.78 1.28-4.01 2.01 3.7 4.21-.03-2.89 3.06 1.32 4-3.8-1.81-3.39 2.49.55-4.17-3.43-2.45z"/></g></svg>